<?xml version="1.0" encoding="UTF-8" standalone="no"?>
<svg width="31px" height="40px" viewBox="0 0 31 40" version="1.1" xmlns="http://www.w3.org/2000/svg" xmlns:xlink="http://www.w3.org/1999/xlink">
    <!-- Generator: Sketch 39.1 (31720) - http://www.bohemiancoding.com/sketch -->
    <title>Control Logo Copy</title>
    <desc>Created with Sketch.</desc>
    <defs></defs>
    <g id="Homepage" stroke="none" stroke-width="1" fill="none" fill-rule="evenodd">
        <g id="Control-Logo-Copy" fill="#5491CD">
            <path d="M18.5506579,17.9479709 L14.7841291,15.6636837 C14.5827105,15.5413111 14.36115,15.4801249 14.1395894,15.4801249 C13.6964684,15.4801249 13.2734892,15.7044745 13.0519287,16.1123829 L2.13503772,35.2228928 C1.77248415,35.8347555 1.9739028,36.6505723 2.57815876,37.0176899 L6.36482944,39.3223725 C6.56624809,39.4447451 6.78780861,39.5059313 7.00936913,39.5059313 C7.45249016,39.5059313 7.87546933,39.2815817 8.09702985,38.8736733 L19.0139208,19.7631634 C19.3563326,19.1309053 19.1549139,18.3150884 18.5506579,17.9479709 Z M29.91067,8.40291363 L16.596897,0.469094693 C15.9926411,0.101977107 15.0056897,0.101977107 14.4014337,0.469094693 L1.08766073,8.40291363 C0.483404767,8.77003122 0,9.64703434 0,10.3608741 L0,26.2081165 C0,26.9219563 0.503546633,27.7989594 1.08766073,28.166077 L3.44425897,29.5733611 L6.76766674,23.760666 C6.50582249,23.3527575 6.32454571,22.8836629 6.32454571,22.455359 L6.32454571,14.1136316 C6.32454571,13.3997919 6.82809234,12.5227888 7.41220643,12.1556712 L14.4014337,7.9950052 C15.0056897,7.62788762 15.9926411,7.62788762 16.596897,7.9950052 L23.5861243,12.1556712 C24.1903802,12.5227888 24.673785,13.3997919 24.673785,14.1136316 L24.673785,22.4349636 C24.673785,23.1488033 24.1702384,24.0462019 23.5861243,24.392924 L16.596897,28.55359 C16.3551946,28.696358 16.0329248,28.7779396 15.7106549,28.8187305 L12.2865378,34.8149844 L14.4014337,36.0795005 C15.0056897,36.4466181 15.9926411,36.4466181 16.596897,36.0795005 L29.91067,28.1456816 C30.5149259,27.778564 30.9983307,26.9015609 30.9983307,26.1877211 L30.9983307,10.3608741 C31.0184726,9.64703434 30.5149259,8.7496358 29.91067,8.40291363 Z" id="control-icon"></path>
        </g>
    </g>
</svg>